<?xml version="1.0" encoding="utf-8"?>
<!-- Generator: Adobe Illustrator 25.2.0, SVG Export Plug-In . SVG Version: 6.00 Build 0)  -->
<svg version="1.1" id="Layer_1" xmlns="http://www.w3.org/2000/svg" xmlns:xlink="http://www.w3.org/1999/xlink" x="0px" y="0px"
	 viewBox="0 0 512 512" enable-background="new 0 0 512 512" xml:space="preserve">
<g>
	<path fill-rule="evenodd" clip-rule="evenodd" fill="#44C8F5" d="M72.6,256.8l69.6,69.8L439,30.1L309.6,30c-12,0-9.1-1.3-14.5,4.2
		L72.6,256.8z"/>
	<path fill-rule="evenodd" clip-rule="evenodd" fill="#005899" d="M246.8,431.1c4.5,5.2,10.3,10.4,15.2,15.3l34.4,34.4
		c1.6,1.7,1.9,2.8,4.6,2.9c4.8,0.3,10.7,0,15.7,0c40.8,0,81.5,0,122.3,0c-3-4.4-119.7-119-121.7-122.4l-0.7,0.1
		c-2.5,3-5.9,5.9-8.7,8.8C299.7,378.2,248.4,428.1,246.8,431.1z"/>
	<path fill-rule="evenodd" clip-rule="evenodd" fill="#44C8F5" d="M246.9,291.8l69.5,69.5l0.7-0.1c3.5-4.5,102.3-102.4,117.6-117.7
		c1.4-1.4,3.1-2.4,3.7-4.4c-40.6,0-81.2,0-121.7,0c-5,0-10.2-0.1-15.2,0c-3.3,0.1-3.1,0.8-4.9,2.7
		C290.1,248.3,248.3,289.3,246.9,291.8z"/>
	<path fill-rule="evenodd" clip-rule="evenodd" fill="#29B7EA" d="M246.8,431.1c1.7-3,52.9-52.9,61-60.9c2.9-2.9,6.2-5.8,8.7-8.8
		l-69.5-69.5c-1.6,0.7-7.3,6.9-8.7,8.3c-6.3,6.3-59.4,58.9-61,61.3L246.8,431.1z"/>
</g>
</svg>
