<?xml version="1.0" encoding="utf-8"?>
<!-- Generator: Adobe Illustrator 25.2.0, SVG Export Plug-In . SVG Version: 6.00 Build 0)  -->
<svg version="1.1" id="Layer_1" xmlns="http://www.w3.org/2000/svg" xmlns:xlink="http://www.w3.org/1999/xlink" x="0px" y="0px"
	 viewBox="0 0 512 512" style="enable-background:new 0 0 512 512;" xml:space="preserve">
<style type="text/css">
	.st0{fill:#EF4623;}
	.st1{fill:#FFFFFF;}
</style>
<path class="st0" d="M421.16,89.38C379,29.05,295.73,11.17,235.54,49.52L129.8,116.91c-28.93,18.13-48.87,47.61-54.94,81.21
	c-1.34,7.49-2.02,15.08-2.03,22.69c0.07,20.68,5.14,41.04,14.78,59.34c-9.04,13.73-15.21,29.15-18.14,45.33
	c-6.06,34.24,1.93,69.48,22.17,97.76c42.16,60.33,125.62,78.22,185.62,39.87l105.63-67.39c28.91-18.16,48.81-47.67,54.79-81.28
	c1.36-7.47,2.04-15.05,2.03-22.65c-0.03-20.64-5.03-40.97-14.59-59.26c9.04-13.72,15.21-29.13,18.14-45.3
	c1.31-7.48,1.98-15.06,2-22.65c0.01-26.94-8.42-53.2-24.09-75.11L421.16,89.38z"/>
<path class="st1" d="M225.2,428.92c-6.9,1.78-14,2.69-21.13,2.7c-27.53,0.01-53.31-13.5-68.98-36.13
	c-9.43-13.18-14.49-28.98-14.48-45.19c0.01-4.56,0.4-9.11,1.18-13.6c0.63-3.34,1.48-6.64,2.55-9.86l2-6.06l5.39,4.1
	c12.52,9.19,26.51,16.19,41.38,20.69l3.92,1.18l-0.37,3.92c0,0.67,0,1.37,0,2.03c-0.01,4.9,1.52,9.68,4.36,13.67
	c4.66,6.9,12.44,11.05,20.76,11.08c2.14,0.01,4.28-0.27,6.35-0.81c2.3-0.61,4.49-1.57,6.5-2.84l105.63-67.72
	c6.44-4.08,10.33-11.18,10.31-18.81c-0.03-4.9-1.59-9.67-4.47-13.63c-4.73-6.81-12.51-10.87-20.8-10.86
	c-2.14-0.01-4.28,0.27-6.35,0.81c-2.29,0.6-4.48,1.56-6.47,2.84l-40.27,25.71c-6.64,4.21-13.88,7.38-21.47,9.42
	c-6.9,1.78-14,2.69-21.13,2.7c-27.52,0-53.29-13.49-68.98-36.1c-9.42-13.19-14.48-28.98-14.48-45.19c0.01-4.56,0.4-9.11,1.18-13.6
	c3.65-20.19,15.61-37.92,32.96-48.88l105.74-67.35c6.63-4.22,13.87-7.41,21.47-9.46c6.9-1.77,14.01-2.66,21.13-2.66
	c27.59-0.07,53.45,13.41,69.2,36.06c9.36,13.22,14.36,29.03,14.3,45.22c-0.01,4.57-0.4,9.13-1.18,13.63
	c-0.63,3.34-1.48,6.64-2.55,9.86l-2,6.06l-5.39-3.95c-12.51-9.2-26.51-16.2-41.38-20.69l-3.92-1.22l0.37-3.92c0-0.67,0-1.37,0-2.03
	c0-4.91-1.52-9.7-4.36-13.71c-4.73-6.8-12.48-10.86-20.76-10.86c-2.13,0.05-4.24,0.37-6.28,0.96c-2.31,0.59-4.51,1.55-6.5,2.84
	l-105.74,67.35c-5.23,3.32-8.84,8.68-9.94,14.78c-0.26,1.29-0.42,2.6-0.48,3.92c0,4.89,1.52,9.65,4.36,13.63
	c4.72,6.8,12.48,10.86,20.76,10.86c2.14,0.01,4.28-0.27,6.35-0.81c2.31-0.59,4.5-1.55,6.5-2.84l40.35-25.86
	c6.63-4.21,13.87-7.39,21.47-9.42c6.9-1.78,14-2.69,21.13-2.7c27.53,0,53.31,13.48,69.02,36.1c9.42,13.19,14.48,28.98,14.48,45.19
	c0.01,4.61-0.4,9.21-1.22,13.74c-3.63,20.2-15.59,37.94-32.96,48.88L246.7,419.46C240.05,423.69,232.8,426.88,225.2,428.92z"/>
</svg>
